<svg xmlns="http://www.w3.org/2000/svg" width="130" height="12" viewBox="0 0 130 12" fill="none"><path d="M15.1198 1.19999H17.9898L14.4198 11H11.5778L9.29581 4.18199L6.99981 11H4.18581L0.601807 1.19999H3.52781L5.66981 7.93399L8.00781 1.19999H10.6398L12.9778 7.93399L15.1198 1.19999Z" fill="#946F41"></path><path d="M30.5499 11L29.6259 9.12399H24.2499L23.3259 11H20.3299L25.3979 1.19999H28.5199L33.5879 11H30.5499ZM25.2299 7.09399H28.6319L26.9379 3.62199L25.2299 7.09399Z" fill="#946F41"></path><path d="M49.3866 11H46.0686L43.4786 7.90599H40.5946V11H37.7526V1.19999H44.6266C47.1326 1.19999 49.0786 2.30599 49.0786 4.54599C49.0786 6.18399 48.0426 7.21999 46.5026 7.66799L49.3866 11ZM40.5806 5.83399H44.4166C45.4386 5.83399 46.1806 5.55399 46.1806 4.60199C46.1806 3.64999 45.4386 3.36999 44.4166 3.36999H40.5806V5.83399Z" fill="#946F41"></path><path d="M56.8126 8.81599H64.4566V11H53.9986V1.19999H64.3026V3.38399H56.8126V4.99399H62.9866V7.07999H56.8126V8.81599Z" fill="#946F41"></path><path d="M77.9962 1.19999H80.8522V11H77.9962V7.20599H72.1162V11H69.2602V1.19999H72.1162V4.85399H77.9962V1.19999Z" fill="#946F41"></path><path d="M95.2468 11L94.3228 9.12399H88.9468L88.0228 11H85.0268L90.0948 1.19999H93.2168L98.2848 11H95.2468ZM89.9268 7.09399H93.3288L91.6348 3.62199L89.9268 7.09399Z" fill="#946F41"></path><path d="M110.206 1.19999H113.062V6.37999C113.062 9.36199 111.032 11.322 107.378 11.322C103.724 11.322 101.68 9.36199 101.68 6.37999V1.19999H104.536V6.15599C104.536 7.86399 105.488 8.96999 107.378 8.96999C109.268 8.96999 110.206 7.86399 110.206 6.15599V1.19999Z" fill="#946F41"></path><path d="M123.592 4.78399C126.798 5.04999 129.066 5.67999 129.066 7.93399C129.066 9.94999 127.204 11.322 123.648 11.322C121.128 11.322 119.014 10.636 117.474 9.40399L118.972 7.63999C120.134 8.61999 121.744 9.16599 123.704 9.16599C125.384 9.16599 126.224 8.85799 126.224 8.21399C126.224 7.58399 125.44 7.37399 123.424 7.20599C120.512 6.95399 117.866 6.30999 117.866 4.12599C117.866 2.02599 120.134 0.877991 123.242 0.877991C125.342 0.877991 127.274 1.38199 128.618 2.33399L127.176 4.11199C126.084 3.34199 124.768 3.03399 123.242 3.01999C122.094 3.01999 120.708 3.20199 120.708 3.90199C120.708 4.55999 121.842 4.64399 123.592 4.78399Z" fill="#946F41"></path></svg>